
<svg width="43px" height="39px" viewBox="0 0 43 39" version="1.1" xmlns="http://www.w3.org/2000/svg" xmlns:xlink="http://www.w3.org/1999/xlink">
    <g id="Page-1" stroke="none" stroke-width="1" fill="none" fill-rule="evenodd">
        <g id="idid" fill="#EB3F94" fill-rule="nonzero">
            <path d="M19.1,10 L1.5,10 C1.2,10 1,9.8 1,9.5 C1,9.2 1.2,9 1.5,9 L19.1,9 C19.4,9 19.6,9.2 19.6,9.5 C19.6,9.8 19.4,10 19.1,10 Z" id="XMLID_17_"></path>
            <path d="M41.9,10 L38.7,10 C38.4,10 38.2,9.8 38.2,9.5 C38.2,9.2 38.4,9 38.7,9 L41.9,9 C42.2,9 42.4,9.2 42.4,9.5 C42.4,9.8 42.1,10 41.9,10 Z" id="XMLID_16_"></path>
            <path d="M21.7,38.4 C21.5,38.4 21.3,38.3 21.3,38 L14.2,9.6 C14.1,9.4 14.3,9.1 14.5,9 C14.7,8.9 15,9.1 15.1,9.3 L21.7,36 L26.7,16 C26.8,15.8 27,15.6 27.3,15.7 C27.5,15.8 27.7,16 27.6,16.3 L22.2,38.1 C22.1,38.3 21.9,38.4 21.7,38.4 Z" id="XMLID_15_"></path>
            <path d="M14.7,10 C14.6,10 14.4,9.9 14.3,9.8 L7.5,1.2 C7.4,1 7.4,0.7 7.6,0.6 C7.8,0.4 8.1,0.5 8.2,0.7 L14.6,8.9 L21.3,0.3 C21.4,0.2 21.5,0.1 21.7,0.1 C21.9,0.1 22,0.2 22.1,0.3 L25.9,5.2 C26.1,5.4 26,5.7 25.8,5.8 C25.6,6 25.3,5.9 25.2,5.7 L21.8,1.3 L15,9.9 C14.9,10 14.8,10 14.7,10 Z" id="XMLID_14_"></path>
            <path d="M32,5.9 C31.9,5.9 31.8,5.9 31.7,5.8 C31.5,5.6 31.5,5.4 31.6,5.2 L35.1,0.7 C35.3,0.5 35.5,0.5 35.7,0.6 C36,0.7 36.1,1 35.9,1.2 L32.4,5.7 C32.3,5.8 32.1,5.9 32,5.9 Z" id="XMLID_13_"></path>
            <path d="M21.7,38.4 C21,38.4 20.4,38 19.9,37.4 L1.6,11.8 C0.7,10.5 0.7,8.5 1.7,7.3 L6.2,1.5 C6.8,0.7 8.2,0 9.2,0 L34.1,0 C35.2,0 36.5,0.6 37.1,1.5 L41.6,7.3 C42.5,8.5 42.6,10.5 41.7,11.8 L23.5,37.4 C23,38 22.4,38.4 21.7,38.4 Z M9.3,1 C8.5,1 7.5,1.6 7,2.1 L2.5,7.9 C1.8,8.8 1.8,10.3 2.4,11.3 L20.7,36.8 C21,37.2 21.4,37.4 21.8,37.4 C22.2,37.4 22.6,37.2 22.9,36.8 L41,11.3 C41.7,10.4 41.6,8.8 40.9,7.9 L36.4,2.1 C36,1.6 34.9,1 34.1,1 L9.3,1 Z" id="XMLID_10_"></path>
            <path d="M21.2,10 C20.9,10 20.7,9.8 20.7,9.5 C20.7,9.2 20.9,9 21.2,9 C25,9 28.1,5.9 28.1,2.1 C28.1,1.8 28.3,1.6 28.6,1.6 C28.9,1.6 29.1,1.8 29.1,2.1 C29.1,6.5 25.6,10 21.2,10 Z" id="XMLID_9_"></path>
            <path d="M36,10 C31.7,10 28.1,6.5 28.1,2.1 C28.1,1.8 28.3,1.6 28.6,1.6 C28.9,1.6 29.1,1.8 29.1,2.1 C29.1,5.9 32.2,9 36,9 C36.3,9 36.5,9.2 36.5,9.5 C36.5,9.8 36.3,10 36,10 Z" id="XMLID_8_"></path>
            <path d="M28.6,17.5 C28.3,17.5 28.1,17.3 28.1,17 C28.1,12.7 31.6,9.1 36,9.1 C36.3,9.1 36.5,9.3 36.5,9.6 C36.5,9.9 36.3,10.1 36,10.1 C32.2,10.1 29.1,13.2 29.1,17 C29.1,17.2 28.9,17.5 28.6,17.5 Z" id="XMLID_7_"></path>
            <path d="M28.6,17.5 C28.3,17.5 28.1,17.3 28.1,17 C28.1,13.2 25,10.1 21.2,10.1 C20.9,10.1 20.7,9.9 20.7,9.6 C20.7,9.3 20.9,9.1 21.2,9.1 C25.5,9.1 29.1,12.6 29.1,17 C29.1,17.2 28.9,17.5 28.6,17.5 Z" id="XMLID_6_"></path>
        </g>
    </g>
</svg>