
<svg width="156px" height="132px" viewBox="0 0 156 132" version="1.1" xmlns="http://www.w3.org/2000/svg" xmlns:xlink="http://www.w3.org/1999/xlink">
    <g id="Page-1" stroke="none" stroke-width="1" fill="none" fill-rule="evenodd">
        <g id="id" fill="#231F20" fill-rule="nonzero">
            <g id="XMLID_15_" transform="translate(41.000000, 0.000000)">
                <g id="XMLID_81_" transform="translate(0.000000, 41.000000)">
                    <g id="XMLID_83_">
                        <g id="XMLID_86_">
                            <path d="M8,4.5 C8,4.2 6.4,3 4.5,1.9 C2.6,0.8 0.9,0.1 0.7,0.3 C0.6,0.5 2.1,1.7 4.2,2.9 C6.4,4.1 8,4.8 8,4.5 Z" id="XMLID_87_"></path>
                        </g>
                        <g id="XMLID_84_" transform="translate(10.000000, 6.000000)">
                            <path d="M5.1,2 C2.7,0.6 0.7,-0.3 0.7,0.1 C0.7,0.4 2.7,1.8 5.1,3.2 L25.9,15.2 C28.3,16.6 30.4,17.5 30.5,17.3 C30.6,17.1 28.8,15.7 26.4,14.3 L5.1,2 Z" id="XMLID_85_"></path>
                        </g>
                    </g>
                </g>
                <g id="XMLID_68_" transform="translate(8.000000, 9.000000)">
                    <g id="XMLID_73_">
                        <g id="XMLID_99_">
                            <path d="M1.4,7.8 C1.7,7.6 1.9,5.9 1.9,3.9 C1.9,1.9 1.7,0.3 1.4,0.3 C1.1,0.3 0.9,2 0.9,4.2 C0.9,6.4 1.1,7.9 1.4,7.8 Z" id="XMLID_100_"></path>
                        </g>
                        <g id="XMLID_74_" transform="translate(0.000000, 10.000000)">
                            <path d="M1.4,0.9 C1.1,1.1 0.9,3.5 0.9,6.2 L0.9,31.2 C0.9,34 1.1,36.2 1.4,36.2 C1.7,36.2 1.9,33.9 1.9,31.2 L1.9,5.6 C1.9,2.9 1.7,0.7 1.4,0.9 Z" id="XMLID_98_"></path>
                        </g>
                    </g>
                </g>
                <g id="XMLID_55_">
                    <g id="XMLID_102_">
                        <g id="XMLID_105_" transform="translate(0.000000, 5.000000)">
                            <path d="M31.5,0.6 C31.2,0.4 29,1.4 26.6,2.8 L4.9,15.4 C2.5,16.8 0.7,18.1 0.8,18.4 C0.9,18.6 3,17.7 5.4,16.3 L27.7,3.4 C30.1,2 31.8,0.7 31.5,0.6 Z" id="XMLID_106_"></path>
                        </g>
                        <g id="XMLID_103_" transform="translate(34.000000, 0.000000)">
                            <path d="M0.2,4 C0.5,4.2 2.1,3.5 3.8,2.5 C5.5,1.5 6.7,0.5 6.6,0.3 C6.5,0.1 4.9,0.7 3,1.8 C1.2,2.9 -0.1,3.8 0.2,4 Z" id="XMLID_104_"></path>
                        </g>
                    </g>
                </g>
                <g id="XMLID_42_" transform="translate(25.000000, 0.000000)">
                    <g id="XMLID_108_">
                        <g id="XMLID_111_" transform="translate(32.000000, 19.000000)">
                            <path d="M4.5,1.7 C2.4,0.5 0.7,-0.2 0.7,0.1 C0.7,0.4 2.3,1.6 4.2,2.7 C6.1,3.8 7.8,4.5 8,4.3 C8.1,4.1 6.5,2.9 4.5,1.7 Z" id="XMLID_112_"></path>
                        </g>
                        <g id="XMLID_109_">
                            <path d="M30,17.6 C30,17.3 28,15.9 25.6,14.5 L4.8,2.5 C2.4,1.1 0.3,0.2 0.2,0.4 C0.1,0.6 1.9,2 4.3,3.4 L25.6,15.7 C28,17 30,17.9 30,17.6 Z" id="XMLID_110_"></path>
                        </g>
                    </g>
                </g>
                <g id="XMLID_29_" transform="translate(55.000000, 9.000000)">
                    <g id="XMLID_114_">
                        <g id="XMLID_117_">
                            <path d="M1.3,35.7 C1.6,35.5 1.8,33.1 1.8,30.4 L1.8,5.4 C1.8,2.6 1.6,0.4 1.3,0.4 C1,0.4 0.8,2.7 0.8,5.4 L0.8,31 C0.8,33.7 1.1,35.9 1.3,35.7 Z" id="XMLID_118_"></path>
                        </g>
                        <g id="XMLID_115_" transform="translate(0.000000, 38.000000)">
                            <path d="M1.3,0.8 C1,1 0.8,2.7 0.8,4.7 C0.8,6.7 1,8.3 1.3,8.3 C1.6,8.3 1.8,6.6 1.8,4.4 C1.8,2.3 1.6,0.7 1.3,0.8 Z" id="XMLID_116_"></path>
                        </g>
                    </g>
                </g>
                <g id="XMLID_16_" transform="translate(25.000000, 41.000000)">
                    <g id="XMLID_119_">
                        <g id="XMLID_122_" transform="translate(9.000000, 0.000000)">
                            <path d="M0.2,18 C0.5,18.2 2.7,17.2 5.1,15.8 L26.8,3.3 C29.2,1.9 31,0.6 30.9,0.3 C30.8,0.1 28.7,1 26.3,2.4 L4,15.2 C1.7,16.6 -0.1,17.9 0.2,18 Z" id="XMLID_123_"></path>
                        </g>
                        <g id="XMLID_120_" transform="translate(0.000000, 19.000000)">
                            <path d="M6.5,0.6 C6.2,0.4 4.6,1.1 2.9,2.1 C1.2,3.1 0,4.1 0.1,4.3 C0.2,4.5 1.8,3.9 3.7,2.8 C5.6,1.7 6.8,0.8 6.5,0.6 Z" id="XMLID_121_"></path>
                        </g>
                    </g>
                </g>
            </g>
            <g id="Group" transform="translate(0.000000, 85.000000)">
                <path d="M0.6,0.6 L12.2,0.6 C21.2,0.6 25.3,5.3 25.3,11.7 C25.3,18 21.4,22.8 12.1,22.8 L30.3,44.7 L28.8,44.7 L10.7,22.8 L1.9,22.8 L1.9,44.7 L0.7,44.7 L0.7,0.6 L0.6,0.6 Z M12.5,21.7 C20.2,21.7 24,17.7 24,11.7 C24,5.7 20.2,1.7 12.5,1.7 L1.8,1.7 L1.8,21.6 L12.5,21.6 L12.5,21.7 Z" id="XMLID_12_"></path>
                <polygon id="XMLID_10_" points="38.9 0.6 40.1 0.6 40.1 44.8 38.9 44.8"></polygon>
                <path d="M50,33.2 L51.2,33.2 C51.2,40.1 55.2,44.1 62.1,44.1 C69.1,44.1 73,40.1 73,33.2 L73,0.7 L74.2,0.7 L74.2,33.2 C74.2,41.4 68.9,45.3 62.1,45.3 C55.3,45.3 50,41.4 50,33.2 Z" id="XMLID_8_"></path>
                <polygon id="XMLID_6_" points="89 0.6 113.2 0.6 113.2 1.8 90.2 1.8 90.2 21.4 109.5 21.4 109.5 22.6 90.2 22.6 90.2 43.6 113.2 43.6 113.2 44.8 89 44.8"></polygon>
                <path d="M123.6,29.6 L123.6,1.6 L124.8,1.6 L124.8,29.6 C124.8,40 130.6,45.1 139.8,45.1 C149,45.1 154.8,40.1 154.8,29.6 L154.8,1.6 L156,1.6 L156,29.6 C156,40.4 150,46.3 139.8,46.3 C129.6,46.3 123.6,40.4 123.6,29.6 Z" id="XMLID_4_"></path>
            </g>
        </g>
    </g>
</svg>